<?xml version="1.0" encoding="UTF-8"?>
<svg width="448px" height="406px" viewBox="0 0 448 406" version="1.1" xmlns="http://www.w3.org/2000/svg" xmlns:xlink="http://www.w3.org/1999/xlink">
    <!-- Generator: Sketch 3.8.3 (29802) - http://www.bohemiancoding.com/sketch -->
    <title>pagespeed</title>
    <desc>Created with Sketch.</desc>
    <defs></defs>
    <g id="Page-1" stroke="none" stroke-width="1" fill="none" fill-rule="evenodd">
        <g id="pagespeed" transform="translate(-26.000000, -47.000000)">
            <g transform="translate(26.000000, 47.000000)">
                <path d="M0,29.9983972 C0,13.4307399 13.4309575,0 30.0017086,0 L197.096547,0 L231.017903,33.2822873 L418.000489,33.2822873 C434.568761,33.2822873 448,46.7124984 448,63.2906465 L448,375.991641 C448,392.5648 434.561784,406 417.997153,406 L30.0028468,406 C13.4327321,406 0,392.578426 0,376.001603 L0,29.9983972 Z" id="Rectangle-1" fill="#4285F4"></path>
                <path d="M38.1346707,364.840106 L413.572888,138.752731 L448,171.866555 L448,376.004744 C448,392.570666 434.563977,406 417.995628,406 L74.3541644,406 L38.1346707,364.840106 Z" id="Rectangle-1" fill="#3061B1"></path>
                <rect id="Rectangle-2" fill="#ECF3FD" x="153.534527" y="67.6666667" width="260.092072" height="36.700565"></rect>
                <ellipse id="Oval-1" fill="#ECF3FD" cx="51.5601023" cy="86.0169492" rx="18.3324808" ry="18.3502825"></ellipse>
                <ellipse id="Oval-1" fill="#ECF3FD" cx="104.265985" cy="86.0169492" rx="18.3324808" ry="18.3502825"></ellipse>
                <rect id="Rectangle-3" fill="#ECF3FD" x="37.8107417" y="138.774011" width="375.815857" height="225.937853"></rect>
                <path d="M225.14578,331.451977 C240.649303,331.451977 339.45361,236.610667 338.969428,224.716589 C338.485246,212.82251 243.272938,265.776138 222.865409,275.434001 C202.45788,285.091864 197.074169,290.504986 197.074169,305.073446 C197.074169,319.641907 209.642257,331.451977 225.14578,331.451977 Z" id="Oval-3" fill="#666666"></path>
                <path d="M153.043161,202.456711 C230.660603,156.599961 304.432408,208.976691 304.432408,208.976691 L260.707828,228.549833 C260.707828,228.549833 218.793959,207.066151 171.250119,234.209786 C123.706278,261.353421 121.032609,323.423732 121.032609,323.423732 L85.9335038,323.423729 C85.9335038,323.423729 75.4257193,248.313462 153.043161,202.456711 Z" id="Rectangle-4" fill="#4285F4"></path>
                <path d="M326.54341,303.160882 C325.194203,296.342699 320.796622,282.782411 320.796622,282.782411 L346.48194,257.702083 C346.48194,257.702083 352.307864,264.529485 358.95153,288.185864 C365.595195,311.842243 363.562148,323.423729 363.562148,323.423729 L328.838875,323.423729 C328.838875,323.423729 327.874954,309.889805 326.54341,303.160882 Z" id="Rectangle-5" fill="#DA4436"></path>
            </g>
        </g>
    </g>
</svg>